<?xml version="1.0" encoding="utf-8"?>
<!-- Generator: Adobe Illustrator 24.0.2, SVG Export Plug-In . SVG Version: 6.00 Build 0)  -->
<svg version="1.1" id="Layer_1" xmlns="http://www.w3.org/2000/svg" xmlns:xlink="http://www.w3.org/1999/xlink" x="0px" y="0px"
	 viewBox="0 0 417.9 428.1" style="enable-background:new 0 0 417.9 428.1;" xml:space="preserve">
<style type="text/css">
	.st0{fill:#3E7256;}
	.st1{fill:url(#SVGID_1_);}
	.st2{fill:url(#SVGID_2_);}
	.st3{fill:#606161;}
	.st4{fill:#FFFFFF;}
	.st5{fill:#E08142;}
	.st6{fill:url(#SVGID_3_);}
	.st7{fill:url(#SVGID_4_);}
	.st8{fill:url(#SVGID_5_);}
	.st9{fill:url(#SVGID_6_);}
	.st10{opacity:0.5;fill:url(#SVGID_7_);enable-background:new    ;}
	.st11{opacity:0.5;fill:url(#SVGID_8_);enable-background:new    ;}
	.st12{fill:url(#SVGID_9_);}
	.st13{fill:url(#SVGID_10_);}
	.st14{opacity:0.5;fill:url(#SVGID_11_);enable-background:new    ;}
	.st15{fill:url(#SVGID_12_);}
	.st16{fill:url(#SVGID_13_);}
	.st17{fill:url(#SVGID_14_);}
	.st18{fill:url(#SVGID_15_);}
	.st19{opacity:0.24;fill:#3E7256;enable-background:new    ;}
	.st20{fill:url(#SVGID_16_);}
	.st21{opacity:0.5;fill:url(#SVGID_17_);enable-background:new    ;}
	.st22{fill:url(#SVGID_18_);}
	.st23{fill:url(#SVGID_19_);}
	.st24{fill:url(#SVGID_20_);}
	.st25{fill:url(#SVGID_21_);}
	.st26{fill:url(#SVGID_22_);}
	.st27{opacity:0.24;fill:#FFFFFF;enable-background:new    ;}
	.st28{fill:url(#SVGID_23_);}
	.st29{opacity:0.5;fill:url(#SVGID_24_);enable-background:new    ;}
	.st30{opacity:0.5;fill:url(#SVGID_25_);enable-background:new    ;}
	.st31{opacity:0.5;fill:url(#SVGID_26_);enable-background:new    ;}
	.st32{fill:url(#SVGID_27_);}
	.st33{fill:url(#SVGID_28_);}
	.st34{fill:url(#SVGID_29_);}
</style>
<title>Video Call</title>
<path class="st0" d="M91.6,424c0,1,0.4,2.1,1,2.9c0.9,0.8,2,1.2,3.2,1.1c7.3,0.6,14.4-2,20.7-5.6c1.6-0.8,3-2,4.1-3.4
	c1.1-1.5,1.2-3.5,0.2-5.1c-0.7-0.8-1.6-1.4-2.5-1.7c-2.4-0.9-4.8-1.7-7.3-2.2c-4.8-1.2-9.9-2.7-14.9-2.7c-4.4,0-5.3,3.3-5.3,7.2
	C90.8,417.6,91.1,420.8,91.6,424z"/>
<path class="st0" d="M56.7,408.7c-1,1.1-1.6,2.4-1.8,3.9c-0.7,3.8-0.5,7.7,0.6,11.4c0.1,0.7,0.4,1.3,0.8,1.8c1,1.3,2.9,1.6,4.6,1.5
	c4.3-0.2,8.4-2.1,12.2-4.2c2.2-1.1,4.2-2.6,5.9-4.3c1.7-1.8,2.6-4.2,2.4-6.7c-0.1-0.7-0.3-1.4-0.8-1.9c-0.9-0.8-2.1-1.2-3.2-1.1
	c-4-0.4-8-0.7-12-1C62.5,407.8,59,406.6,56.7,408.7z"/>
<linearGradient id="SVGID_1_" gradientUnits="userSpaceOnUse" x1="94.05" y1="192.4861" x2="108.26" y2="192.4861" gradientTransform="matrix(1 0 0 -1 -52.87 427.8)">
	<stop  offset="0" style="stop-color:#E5C6D6"/>
	<stop  offset="0.42" style="stop-color:#EAD4D0"/>
	<stop  offset="1" style="stop-color:#F0E9CB"/>
</linearGradient>
<path class="st1" d="M41.4,235.7c0.6,12.2,2.8,24.4,8,35.4c1.4-2,1.7-4.5,1.8-6.9c0.4-6.6-0.1-13.3-0.2-19.9
	c-0.2-7.3,2.7-13.6,3.3-20.8c0.4-4.7,1.9-15.6,0.7-20.2c-0.8-3.1-6.4-2-9.5-3.5c-4-1.9-3.2,5.4-3.4,7.8
	C41.3,217,41,226.3,41.4,235.7z"/>
<path class="st0" d="M346.8,1.9H210.5c-13.3,0-24,10.7-24,24v290.5c0,13.3,10.7,24,24,24h136.3c13.3,0,24-10.7,24-24V25.9
	C370.8,12.6,360,1.9,346.8,1.9z M352.8,211.6v91.8H194.6V27.6c0-5.5,4.5-10,10-10l0,0h21v12.5h94.3V17.7h23c5.5,0,10,4.5,10,10
	v170.2C353.2,202.5,353.2,207,352.8,211.6L352.8,211.6z"/>
<linearGradient id="SVGID_2_" gradientUnits="userSpaceOnUse" x1="373.3" y1="256.4232" x2="732.2899" y2="254.5632" gradientTransform="matrix(1 0 0 -1 -52.87 427.8)">
	<stop  offset="0" style="stop-color:#010101;stop-opacity:0"/>
	<stop  offset="0.95" style="stop-color:#010101"/>
</linearGradient>
<path class="st2" d="M346.7,1.9H210.5c-13.3,0-24,10.7-24,24v290.5c0,13.3,10.7,24,24,24h136.3c13.3,0,24-10.7,24-24V25.9
	C370.7,12.6,360,1.9,346.7,1.9z M352.7,211.6v91.8H194.5V27.6c0-5.5,4.5-10,10-10h21v12.5h94.3V17.7h23c5.5,0,10,4.5,10,10v170.2
	C353.1,202.4,353.1,207,352.7,211.6L352.7,211.6z"/>
<path class="st3" d="M114.1,350.8c-2.6,15.3-6.2,30.5-10.9,45.3c-0.3,1.2-0.8,2.3-1.5,3.2c-2,2.4-5.7,2.1-8.8,1.5
	c-0.7,0-1.3-0.3-1.8-0.7c-0.4-0.5-0.5-1.2-0.5-1.9c-0.8-17.6,1-35.2,0.7-52.9s2-27.9-6.5-43.3c-4.4,35.6-3.9,64.9-16.1,98.6l0,0
	c-0.3,2.2-2.4,3.7-4.6,3.3c-0.1,0-0.1,0-0.2,0l-6.9,0.1c-0.6,0.1-1.2-0.1-1.7-0.4c-0.8-0.6-0.7-1.7-0.6-2.6
	c3.4-24.1,2.3-48.5,1.2-72.8c-0.3-6.7-0.6-13.5-0.9-20.1c-0.5-10.9-1-21.9-2.9-32.7c-0.8-4.5-1.8-9.1-1.3-13.6s2.9-9.2,7.1-11.1
	c2.1-0.8,4.3-1.2,6.5-1.1c13.4-0.7,27.4-0.2,40.5,2.6c9.4,2,12.4,6.5,13.3,15.9C120.5,295.6,118.7,323.7,114.1,350.8z"/>
<path class="st0" d="M341.1,1.9H204.9c-13.3,0-24,10.7-24,24v290.5c0,13.3,10.7,24,24,24h136.3c13.2,0,24-10.8,24-24V25.9
	C365.1,12.6,354.4,1.9,341.1,1.9z M347.1,211.6v91.8H188.9V27.6c0-5.5,4.5-10,10-10h21v12.5h94.3V17.7h23c5.5,0,10,4.5,10,10v170.2
	C347.6,202.4,347.5,207,347.1,211.6z"/>
<path class="st4" d="M347.1,28.3V304H189V28.3c0-5.5,4.4-10,9.9-10c0,0,0,0,0.1,0h21v12.5h94.3V18.3h23
	C342.7,18.3,347.1,22.8,347.1,28.3z"/>
<path class="st5" d="M324.8,209.1c-1,10.7-3,21.3-6.2,31.6l0,0c-0.7,2.3-1.5,4.6-2.4,6.9c-0.8,1.9-1.8,3.6-3.1,5.2
	c-5.4,6.6-15.3,8.1-23.4,5.3c-0.7-0.3-1.3-0.5-2-0.8c-8.4-3.9-14.3-11.8-17.8-20.4c-1.5-3.5-2.6-7.3-4.8-10.4
	c-4.6-6.7-12.9-9.6-20.4-12.8c-0.4-0.2-0.8-0.4-1.2-0.6c-7.5-3.4-10.9-7-12.1-15.7s0.1-17.6-2-26.1c-2.1-8.3-7.5-15.4-9.5-23.8
	s-0.2-17.5,4.1-25s10.7-13.6,18-18.3c3.9-2.6,8.1-4.6,12.6-5.8c9.2-2.3,19.2-0.3,27.7,4c11.4,5.8,20.7,15.9,24.4,28
	c2.6,8.6,2.5,17.9,5.3,26.4c2,6,5.3,11.3,7.8,17.1c2.8,6.7,4.5,13.9,5,21.2C325.1,199.6,325.1,204.4,324.8,209.1z"/>
<linearGradient id="SVGID_3_" gradientUnits="userSpaceOnUse" x1="310.9116" y1="280.6407" x2="421.6016" y2="42.7207" gradientTransform="matrix(1 0 0 -1 -52.87 427.8)">
	<stop  offset="0" style="stop-color:#010101;stop-opacity:0"/>
	<stop  offset="0.95" style="stop-color:#010101"/>
</linearGradient>
<path class="st6" d="M298.7,158.8c0,4.2-0.8,8.4-0.4,12.5c0.5,5,2.8,9.7,4.3,14.6s2.1,10.4-0.5,14.8c-1.5,2.2-3.4,4-5.7,5.4
	c-8.6,5.8-19.8,9.2-29.5,5.4c-2.9-1.2-5.6-2.9-8.5-4.2s-5.9-2-8.5-3.7c-4.9-3.1-7.5-8.8-8.9-14.4s-1.8-11.5-3.8-16.9
	c-2.3-6.5-6.8-12.8-5.8-19.7c0.8-5.6,5.3-10.1,10.5-12.3s11-2.4,16.7-2.2c9.9,0.4,19.6,2.5,28.7,6.4
	C294.8,147.5,298.7,149.7,298.7,158.8z"/>
<linearGradient id="SVGID_4_" gradientUnits="userSpaceOnUse" x1="284.2091" y1="264.4361" x2="291.0591" y2="264.4361" gradientTransform="matrix(1 0 0 -1 -52.87 427.8)">
	<stop  offset="0" style="stop-color:#E5C6D6"/>
	<stop  offset="0.42" style="stop-color:#EAD4D0"/>
	<stop  offset="1" style="stop-color:#F0E9CB"/>
</linearGradient>
<path class="st7" d="M232.7,158.2c-0.8,0.6-1.3,1.5-1.3,2.6c0,1,0.3,2,0.7,2.9c0.7,2,2,3.7,3.7,4.8c0.6,0.5,1.4,0.5,2.1,0.1
	c0.3-0.4,0.5-1,0.4-1.5C238.1,165,235.9,156.4,232.7,158.2z"/>
<linearGradient id="SVGID_5_" gradientUnits="userSpaceOnUse" x1="344.47" y1="270.211" x2="351.05" y2="270.211" gradientTransform="matrix(1 0 0 -1 -52.87 427.8)">
	<stop  offset="0" style="stop-color:#E5C6D6"/>
	<stop  offset="0.42" style="stop-color:#EAD4D0"/>
	<stop  offset="1" style="stop-color:#F0E9CB"/>
</linearGradient>
<path class="st8" d="M298,153.8c0.3,1.8,0.2,3.7-0.3,5.5c-0.5,1.8-1.7,3.3-3.3,4.3c-0.3,0.2-0.6,0.3-1,0.3c-0.6-0.1-1.1-0.4-1.3-1
	c-0.2-0.5-0.3-1.1-0.3-1.7c-0.1-2.3-0.3-5.7,1-7.8C294.2,150.9,297.4,150.2,298,153.8z"/>
<path class="st0" d="M254.6,201.2c9-4,18.8-6,28.6-5.8c3.2,0,6.3,0.4,9.4,1.1c5.1,1.3,9.7,4,13.3,7.8c2.3,2.4,4.2,5.1,5.9,8
	c1.7,2.8,3.1,5.7,4.2,8.7c1,3.1,2.4,6.3,1.9,9.4c-6.1,41.4-1,63-2.4,74.4c-26.3-1-55,0.2-81.4-1c-0.9,0.1-1.8-0.2-2.5-0.7
	c-0.6-0.6,0.1-6.8,0.1-7.6c-0.1-10.1,3-20,4.3-30.1c1.5-11.3,0.7-22.8,2.1-34S244.2,205.8,254.6,201.2z"/>
<linearGradient id="SVGID_6_" gradientUnits="userSpaceOnUse" x1="245.2214" y1="104.4046" x2="266.6218" y2="104.4046" gradientTransform="matrix(0.9907 -0.1359 -0.1359 -0.9907 33.0189 334.8104)">
	<stop  offset="0" style="stop-color:#E5C6D6"/>
	<stop  offset="0.42" style="stop-color:#EAD4D0"/>
	<stop  offset="1" style="stop-color:#F0E9CB"/>
</linearGradient>
<path class="st9" d="M263.4,199.7c-0.5,1.5-0.8,3.2-0.8,4.8c0.2,1.9,1.4,3.5,3.1,4.3c1.6,0.6,3.3,0.7,5,0.3c1-0.2,2-0.5,2.9-1
	c1.3-0.8,2.5-1.8,3.4-3c1.3-1.3,2.4-2.7,3.3-4.3c0.6-1.4,1.1-2.8,1.3-4.3c0.5-3.3,0.6-6.7,0.2-10c0-1-0.4-2-1.2-2.6
	c-0.7-0.4-1.6-0.4-2.4-0.3c-3.9,0.5-8,1.4-11,4c-0.9,0.8-1.9,1.6-2.8,2.5c-0.6,0.5-0.8,1.3-0.6,2.1
	C264.1,194.6,264,197.2,263.4,199.7z"/>
<linearGradient id="SVGID_7_" gradientUnits="userSpaceOnUse" x1="322.8686" y1="225.7803" x2="332.8886" y2="271.5903" gradientTransform="matrix(1 0 0 -1 -52.87 427.8)">
	<stop  offset="0" style="stop-color:#010101;stop-opacity:0"/>
	<stop  offset="0.95" style="stop-color:#010101"/>
</linearGradient>
<path class="st10" d="M281.8,186.3c0,0-6.4,15.2-15.9,13.1l-2.1-1.1l0.4-7.2L281.8,186.3z"/>
<path class="st4" d="M138.4,180.4c-0.8,4.5-1.9,9-3.5,13.3c-1.9,5.4-7.7,8.5-13.3,7.1c-4.5-1.1-9.1-2.2-11.2-2.6l0,0
	c-2,0,0.2,31.6,1,37c1.2,8.4,7.2,21.7,5,23.7c-4.8,4.4-10.2,8.6-16.3,10.9c-2.8,1.1-5.8,1.8-8.9,1.8c-8.4,0.1-16.3-4.4-23.7-8.1
	c-4-2-8.1-4.1-12-6.4c-1.2-0.6-2.3-1.5-3-2.7c-0.6-1.3-0.9-2.7-0.9-4.1c-0.5-9.5-0.7-19-0.5-28.5c0.1-4.5,1.1-9.5,0.6-13.9
	c-0.4-3.6-4.8-3.2-7.6-5.4c-0.8-0.6-3.6-0.9-3.9-1.8c-0.2-0.4-0.2-0.8-0.3-1.3c-0.3-4.5,3.1-11.5,3.8-16c0.9-5.8,1.6-12,4.5-17.3
	c3.1-5.8,8.8-10,15-12.4s25.4-0.7,29,1.4c24,14,45,20.1,45.6,21.2C138.7,177.7,138.8,179.1,138.4,180.4z"/>
<linearGradient id="SVGID_8_" gradientUnits="userSpaceOnUse" x1="175.3731" y1="226.1389" x2="178.5131" y2="235.0889" gradientTransform="matrix(1 0 0 -1 -52.87 427.8)">
	<stop  offset="0" style="stop-color:#010101;stop-opacity:0"/>
	<stop  offset="0.95" style="stop-color:#010101"/>
</linearGradient>
<path class="st11" d="M121.6,186.8c0,0-1.6,9.3-0.5,11.3s6.1,2.3,8.4,0.6S121.6,186.8,121.6,186.8z"/>
<linearGradient id="SVGID_9_" gradientUnits="userSpaceOnUse" x1="174.1338" y1="278.7984" x2="204.3163" y2="278.7984" gradientTransform="matrix(1 0 0 -1 -52.87 427.8)">
	<stop  offset="0" style="stop-color:#E5C6D6"/>
	<stop  offset="0.42" style="stop-color:#EAD4D0"/>
	<stop  offset="1" style="stop-color:#F0E9CB"/>
</linearGradient>
<path class="st12" d="M131.4,174.6c-1.8,3-7.1,3.3-8.4,6.5c-1.1,3-1.7,6.2-1.6,9.5c-0.1,1.5,0.2,2.9,0.9,4.2c1.1,2.1,3.6,3,5.8,3.5
	c3.4,1,7,1.4,10.6,1.2c3.6-0.2,7-1.9,9.4-4.5c2.8-3.4,3.3-8,3.4-12.4c0.4-10.5-0.5-21-2.6-31.3c-0.9-4.6-2.1-9.1-2.2-13.7
	c-0.1-6,1.6-12,2-18s-0.7-12.7-5.2-16.7c-2-1.5-4.1-2.8-6.4-3.7c-1.5-0.7-3.4-1.3-4.6-0.2c-0.5,0.5-0.8,1-1,1.7
	c-1.5,4.6,0.2,9.7-0.6,14.5c0,1-0.6,2-1.5,2.5c-0.6,0.1-1.3,0.2-1.9,0.3c-1.4,0.5-2.3,2-2,3.5c0.3,1.4,1,2.8,1.9,3.9
	c2.1,2.9,5.6,5.7,6.4,9.2c0.9,4.1,0.6,9.1,0.5,13.3C134.2,156.4,135.8,167.3,131.4,174.6z"/>
<path class="st3" d="M92.2,400.1c-0.1,2.6-0.1,5.3,0,7.9c-0.1,0.7,0.1,1.4,0.6,2c0.4,0.3,0.9,0.5,1.5,0.5c1.8,0.3,3.6,0.4,5.4,0.5
	c0.3,0,0.6,0,0.9-0.1c0.2-0.1,0.4-0.2,0.5-0.3c1-0.9,1.6-2.1,1.8-3.5c0.2-1.3,0.2-2.7,0-4c-0.1-2.1-0.4-4.2-1-6.2
	c-0.1-0.2-0.2-0.5-0.4-0.6c-0.2-0.1-0.4-0.2-0.6-0.2c-2.2-0.2-4.5-0.2-6.7,0.3C92.4,396.9,92.3,398.1,92.2,400.1z"/>
<path class="st3" d="M56.1,408.4c-0.2,0.9,0,1.8,0.6,2.4c0.5,0.3,1,0.4,1.6,0.3l5.2-0.1c0.8,0.1,1.6-0.2,2.2-0.8
	c0.2-0.4,0.3-0.9,0.3-1.4c0.1-2.7,0.8-6.4,0.2-9c-0.4-1.7-0.3-1.5-2.1-1.6c-1.2-0.2-2.4-0.1-3.5,0.1
	C56.9,399.4,56.5,405.3,56.1,408.4z"/>
<linearGradient id="SVGID_10_" gradientUnits="userSpaceOnUse" x1="128.28" y1="280.0178" x2="147.2098" y2="280.0178" gradientTransform="matrix(1 0 0 -1 -52.87 427.8)">
	<stop  offset="0" style="stop-color:#E5C6D6"/>
	<stop  offset="0.42" style="stop-color:#EAD4D0"/>
	<stop  offset="1" style="stop-color:#F0E9CB"/>
</linearGradient>
<path class="st13" d="M94.1,155.4c0.2,0.6,0.3,1.1,0.2,1.7c-0.4,0.9-1.2,1.6-2.1,1.8c-2.6,1-5.4,1.2-8.1,0.6c-2.7-0.6-7.3-4-8.7-6.3
	c0.2-2.1,0.2-4.2,0.1-6.3c-0.1-2-0.1-4,0.1-6c0-1.5,0.6-3,1.7-4.1c2-1.7,5-0.8,7.4,0.1c2.3,0.9,4.7,2,5.8,4.1c1,1.9,2.3,4.1,2.7,6.1
	C93.8,149.8,93.4,152.6,94.1,155.4z"/>
<linearGradient id="SVGID_11_" gradientUnits="userSpaceOnUse" x1="141.9548" y1="274.6896" x2="139.4748" y2="304.2896" gradientTransform="matrix(1 0 0 -1 -52.87 427.8)">
	<stop  offset="0" style="stop-color:#010101;stop-opacity:0"/>
	<stop  offset="0.95" style="stop-color:#010101"/>
</linearGradient>
<path class="st14" d="M83,141.1c0,0,7.4,11.6,10.4,12.4l0.1-7.8L83,141.1z"/>
<linearGradient id="SVGID_12_" gradientUnits="userSpaceOnUse" x1="129.45" y1="305.275" x2="165.13" y2="305.275" gradientTransform="matrix(1 0 0 -1 -52.87 427.8)">
	<stop  offset="0" style="stop-color:#E5C6D6"/>
	<stop  offset="0.42" style="stop-color:#EAD4D0"/>
	<stop  offset="1" style="stop-color:#F0E9CB"/>
</linearGradient>
<path class="st15" d="M112,115.9c0.3,2.3,0.3,4.6,0.1,6.8c-0.1,4.1-0.8,8.3-1.9,12.3c-1.2,4-3.7,7.5-7.2,9.9
	c-4.5,2.6-10,2.8-14.7,0.5c-8.2-4.3-12.8-13.3-11.5-22.4c0.6-3.7,2.4-7.2,4.3-10.4c2.6-4.5,5.6-9.1,10-11.9c4-2.5,11-3.8,14.6,0
	C109,103.8,111.2,111.6,112,115.9z"/>
<path class="st3" d="M100.8,79c5.1,1.3,9.3,4.8,11.3,9.7c0.9,2.2,1.2,4.5,0.9,6.9c-0.4,1.9-1.2,3.8-2.2,5.5
	c-1.3,2.4-14.8,3.9-16.1,17.3c0,0.3-2.3,7.1-2.6,7c-1.3-1-0.2-5.4-1.2-6.7c-1.5-1.5-3.9-1.7-5.6-0.4c-1.6,1.3-2.4,3.4-2.2,5.5
	c0.2,2,4.2,6.1,2.7,8.4c-0.9,1.3-3.4,7.5-4.8,8.2c-2,0.9-4.5,0.2-6.4-1c-1.9-1.3-3.6-2.9-5-4.8c-5.1-6.6-7.9-15-7-23.3
	c0.4-3.1,1.7-6.7,4.8-7.5c0.3,0,0.5-0.1,0.7-0.3c0.3-0.3,0.4-0.8,0.4-1.2c0.6-7.6,4.8-14.4,11.4-18.3C85.5,80.6,94.3,77.4,100.8,79z
	"/>
<linearGradient id="SVGID_13_" gradientUnits="userSpaceOnUse" x1="284.165" y1="277.5045" x2="346.7378" y2="277.5045" gradientTransform="matrix(1 0 0 -1 -52.87 427.8)">
	<stop  offset="0" style="stop-color:#E5C6D6"/>
	<stop  offset="0.42" style="stop-color:#EAD4D0"/>
	<stop  offset="1" style="stop-color:#F0E9CB"/>
</linearGradient>
<path class="st16" d="M237.9,169.5c0.8,2.9,1.9,5.7,3.4,8.3c1.8,2.6,4,4.8,6.6,6.6c6.5,4.8,14.6,8.3,22.7,7
	c8.4-1.4,15.2-8,18.8-15.6s4.4-16.4,4.4-24.9c0.1-4.7-0.4-9.4-1.5-13.9c-2.9-10.4-11.1-18.9-20.7-23.8c-4.6-2.4-9.6-3.9-14.8-4.2
	c-5.2-0.3-10.4,1.2-14.7,4.3C224.4,126.7,232.5,152,237.9,169.5z"/>
<path class="st5" d="M236.5,126c1.2-0.2,2.4-0.1,3.5,0.4c2.9,1.1,5,3.5,7.1,5.8c5.2,5.6,11.1,11.1,18.4,13.1
	c8.2,2.3,17.1-0.2,25.5,1.6c1.2,0.2,2.3,0.6,3.3,1.2c1.2,0.8,2.1,2,3.2,2.9s2.9,1.3,4,0.4c0.8-0.9,1.2-2.1,1-3.3
	c-0.2-5.3-2.3-10.3-4.3-15.2c-3-7-6.2-14.1-11.6-19.4c-6.3-6.1-14.5-11.7-23.2-11.7l-17.9,3.4c-5.8,3-9.8,8.6-14.5,13.1
	c-1.7,1.5-3.3,3.1-4.6,4.9c-1.5,2.6-2.4,5.6-2.4,8.6c-0.1,1.7-0.3,4.7,1.5,5.7c1.5,0.8,3.2-0.1,4.1-1.3
	C232.1,133.3,232,127.1,236.5,126z"/>
<linearGradient id="SVGID_14_" gradientUnits="userSpaceOnUse" x1="241.82" y1="234.3772" x2="297.54" y2="234.3772" gradientTransform="matrix(1 0 0 -1 -52.87 427.8)">
	<stop  offset="0" style="stop-color:#E5C6D6"/>
	<stop  offset="0.42" style="stop-color:#EAD4D0"/>
	<stop  offset="1" style="stop-color:#F0E9CB"/>
</linearGradient>
<path class="st17" d="M244.7,216.6c-1.2,5.3-3,10.4-5.3,15.3c-2.3,4.5-8.5,18.2-13,20.4c-4.9,2.4-23.3,7.1-27.3,7.8
	c-3.4,0.5-6.9,0.2-10.1-1.1v-77l1.9-9.3c0.5-1.9,0.7-3.8,0.6-5.7c-0.2-1.7-0.6-3.3-1.2-4.9c-0.5-1.7-0.9-3.4-1.2-5.1V140
	c0.2-1.2,0.5-2.4,0.8-3.6c0.9,2.3,1.9,4.6,2.8,6.9c0-5.2,0.9-10.4,2.6-15.4c1.4,3.4,2.4,6.9,2.9,10.5c0.6-3.5,1.6-6.9,3-10.1
	c0.3-0.8,0.9-1.8,1.8-1.6s1.3,1.2,1.4,2.1c0.5,3.2,1.1,6.5,1.6,9.7c0.7-3.5,1.5-7,2.1-10.5c0.1-0.6,0.4-1.3,1-1.5
	c0.9-0.3,1.5,1,1.6,2c1,7.8,1,15.7,0,23.5c4.4-0.2,5.1-8.1,9.5-8.3c0.2,8.8-4.1,18.5-11.2,23.7c-2.4,11.1-4.7,22.2-7,33.3
	c-1.9,9.3-3.9,19-2.1,28.3c0.2,1.3,0.7,2.6,1.6,3.6c2,2,5.4,0.9,8-0.3C221.3,227.1,233,221.9,244.7,216.6z"/>
<path class="st0" d="M225.5,218.4c-3.5,2.9-6.8,6-9.9,9.4c-1.2,1.1-2.2,2.5-3,4c-1.2,2.7-0.6,5.9,0.2,8.8c1.5,5.3,3.5,10.5,5.9,15.5
	c0.3,0.8,0.9,1.6,1.6,2.1c1.5,1,3.5,0.3,5.2-0.5l11.2-5.1c1.6-0.7,3.1-1.5,4.6-2.4c3.1-2.2,5.7-5.2,7.4-8.7
	c5.1-9.3,6.7-20.2,4.5-30.6c-0.4-2-1.6-6.5-4.1-6.8c-2-0.2-6.2,3.6-8,4.6C235.9,211.9,230.3,214.7,225.5,218.4z"/>
<linearGradient id="SVGID_15_" gradientUnits="userSpaceOnUse" x1="366.7596" y1="234.99" x2="399.98" y2="234.99" gradientTransform="matrix(1 0 0 -1 -52.87 427.8)">
	<stop  offset="0" style="stop-color:#E5C6D6"/>
	<stop  offset="0.42" style="stop-color:#EAD4D0"/>
	<stop  offset="1" style="stop-color:#F0E9CB"/>
</linearGradient>
<path class="st18" d="M342,248.7c0.8,2.7,2.6,5.1,5.1,6.4V130.5c-10.1,4-30,57.6-32.5,68.1c-3.6,15,8.3,3.8,11.5,18.1
	C330,234.4,337.8,231.1,342,248.7z"/>
<path class="st0" d="M311.5,182.2c2.9-3.6,6.1-7.8,10.5-6.7c-2.8,11.7-1.7,24,3,35.1c2.4,5.6,5.8,12.3,2.5,17.5
	c-1.2,1.9-5.4,1.7-7.2,2.9c-3,2-4.2,5.7-7.8,5.1s-6.4-3.7-8.7-6.6c-5.8-7.2-22.4-24-20.6-34.1C283.2,195.4,301.3,194.9,311.5,182.2z
	"/>
<rect x="195.8" y="44.7" class="st19" width="41.9" height="56"/>
<path class="st4" d="M196.5,90.3c0,0-0.5,7.3-0.2,9.9c13.6-0.3,27,0.2,40.6-0.1l-0.1-6.1c0.2-1-0.3-1.9-1.2-2.3
	c-3.2-2.1-6.5-4.2-10.1-5.3c-2.9-0.8-5.9-1.2-8.9-1.3c-3.3-0.2-7-1-10.2-0.3S199.2,88.3,196.5,90.3z"/>
<linearGradient id="SVGID_16_" gradientUnits="userSpaceOnUse" x1="312.1205" y1="528.9752" x2="325.2813" y2="528.9752" gradientTransform="matrix(0.9812 0.193 0.193 -0.9812 -202.4982 542.4366)">
	<stop  offset="0" style="stop-color:#E5C6D6"/>
	<stop  offset="0.42" style="stop-color:#EAD4D0"/>
	<stop  offset="1" style="stop-color:#F0E9CB"/>
</linearGradient>
<path class="st20" d="M207.8,83.3c-0.2,1.3-0.8,2.6-0.7,4c0.3,1.8,1.3,3.3,2.9,4.2c1.6,0.9,3.5,1.4,5.4,1.5c0.5,0,1,0,1.4-0.2
	c0.7-0.4,1.1-1.2,1-2.1c-0.1-0.8-0.4-1.6-0.6-2.4c-0.5-2.7,1.2-5.4-0.1-7.9c-0.8-1.3-2.1-2.3-3.5-2.7c-1.5-0.5-3.1-0.7-4.7-0.7
	c-2-0.1-2.2,0.8-1.6,2.2C207.8,80.5,208,81.9,207.8,83.3z"/>
<linearGradient id="SVGID_17_" gradientUnits="userSpaceOnUse" x1="266.2014" y1="338.9701" x2="264.8814" y2="357.2601" gradientTransform="matrix(1 0 0 -1 -52.87 427.8)">
	<stop  offset="0" style="stop-color:#010101;stop-opacity:0"/>
	<stop  offset="0.95" style="stop-color:#010101"/>
</linearGradient>
<path class="st21" d="M207.8,81c0,0,1.1,3.8,4.1,5.3c1.6,0.9,3.4,1.3,5.2,1.1c0,0,0.2-3.3,0.8-4S207.8,81,207.8,81z"/>
<linearGradient id="SVGID_18_" gradientUnits="userSpaceOnUse" x1="277.2887" y1="357.3874" x2="279.6287" y2="357.3874" gradientTransform="matrix(1 0 0 -1 -52.87 427.8)">
	<stop  offset="0" style="stop-color:#E5C6D6"/>
	<stop  offset="0.42" style="stop-color:#EAD4D0"/>
	<stop  offset="1" style="stop-color:#F0E9CB"/>
</linearGradient>
<path class="st22" d="M225.7,68c0.3-0.1,0.6,0,0.8,0.2c0.3,0.3,0.4,0.7,0.3,1.1c-0.1,0.9-0.3,1.7-0.7,2.5c-0.2,0.4-0.5,0.9-0.9,1
	c-0.1,0.1-0.3,0.1-0.4,0c-0.3-0.2-0.3-0.6-0.3-0.9l0.2-2.1C224.6,69,225,68.4,225.7,68z"/>
<linearGradient id="SVGID_19_" gradientUnits="userSpaceOnUse" x1="253.99" y1="354.792" x2="258.09" y2="354.792" gradientTransform="matrix(1 0 0 -1 -52.87 427.8)">
	<stop  offset="0" style="stop-color:#E5C6D6"/>
	<stop  offset="0.42" style="stop-color:#EAD4D0"/>
	<stop  offset="1" style="stop-color:#F0E9CB"/>
</linearGradient>
<path class="st23" d="M204.6,72c-0.3-0.4-0.7-0.8-1.1-1.1c-0.4-0.3-1-0.4-1.5-0.2c-0.7,0.3-1,1.1-0.8,1.8c0.2,0.7,0.6,1.3,1.1,1.8
	c0.3,0.4,0.7,0.7,1.2,0.9c0.5,0.2,1,0.2,1.4-0.2c0.4-0.5,0.5-1.2,0.2-1.8c-0.3-0.6-0.5-1.2-0.7-1.8"/>
<linearGradient id="SVGID_20_" gradientUnits="userSpaceOnUse" x1="254.6651" y1="358.1708" x2="278.3473" y2="358.1708" gradientTransform="matrix(1 0 0 -1 -52.87 427.8)">
	<stop  offset="0" style="stop-color:#E5C6D6"/>
	<stop  offset="0.42" style="stop-color:#EAD4D0"/>
	<stop  offset="1" style="stop-color:#F0E9CB"/>
</linearGradient>
<path class="st24" d="M209.1,82.4c2.8,2,6.5,2.7,9.8,1.7c5.5-1.7,6.9-17,6.5-20.3c-0.5-3.3-1.1-6.3-4-7.9c-3.2-1.8-7.2-1-10.8-0.1
	c-2.9,0.7-6,1.6-7.6,4.1c-2,3-1.2,7.9,0,11.1C204.3,74.9,205.7,79.9,209.1,82.4z"/>
<path class="st3" d="M198.7,65c-0.3-1.2-0.5-2.5-0.5-3.7c-0.1-0.5,0-1.1,0.3-1.6c0.5-0.8,1.6-0.8,2.6-0.8c-0.1-1.5,0.2-2.9,0.7-4.3
	c1-2.4,3.5-3.8,5.8-4.8c2.5-1,5.1-1.5,7.8-1.6c2.4-0.1,5,0.1,7.1,1.4c0.8,0.5,1.4,1.2,1.8,2c0.2,0.7,0.4,1.4,0.4,2.1
	c0.4,1.7,0.8,3.2,1.1,5c0.7,4.1-0.4,11.2-0.7,11.3c-0.5,0.3-0.6-7.8-2-10.3c-0.4-0.7-0.8-1.4-1.6-1.5c-0.7,0-1.3,0.3-1.9,0.7
	c-3,1.9-9.2,1.8-12.7,1.3c-1.6-0.2-3.8-0.2-4.4,1.4c-0.2,0.6-0.2,1.2,0,1.8l0.9,6.3c0.1,1,0.1,2-0.1,3c-0.2-0.5-0.5-1-0.8-1.5
	c-0.2-0.2-0.3-0.4-0.5-0.4s-0.7,0.3-0.8,0.2C200.2,69.1,199.2,67.1,198.7,65z"/>
<linearGradient id="SVGID_21_" gradientUnits="userSpaceOnUse" x1="282.9699" y1="358.3081" x2="290.8199" y2="358.3081" gradientTransform="matrix(1 0 0 -1 -52.87 427.8)">
	<stop  offset="0" style="stop-color:#E5C6D6"/>
	<stop  offset="0.42" style="stop-color:#EAD4D0"/>
	<stop  offset="1" style="stop-color:#F0E9CB"/>
</linearGradient>
<path class="st25" d="M231.6,72.3c-0.6-0.4-1.1-1-1.5-1.7c-0.3-0.7,0.1-1.7,0.9-1.8s1.3,0.6,2,0.4s0.7-1.4,0.4-2.2l-2.7-7.8
	c-0.3-1-0.6-2.2,0.2-2.8s1.8-0.1,2.7,0.4c1.4,0.8,3,1.8,3.6,3.3c0.3,0.9,0.4,1.8,0.3,2.7c0,6.5,1,13.9-0.1,20.2
	C236.9,78.8,234.9,74.9,231.6,72.3z"/>
<ellipse class="st4" cx="231.7" cy="17.6" rx="4.4" ry="4.8"/>
<linearGradient id="SVGID_22_" gradientUnits="userSpaceOnUse" x1="268.4681" y1="131.0598" x2="266.5081" y2="57.5798" gradientTransform="matrix(1 0 0 -1 0 430)">
	<stop  offset="0" style="stop-color:#010101;stop-opacity:0"/>
	<stop  offset="0.95" style="stop-color:#010101"/>
</linearGradient>
<rect x="188.9" y="304" class="st26" width="158.6" height="5.1"/>
<path class="st27" d="M292.7,321.9c0,2.8-2.3,5.1-5.1,5.1c0,0,0,0,0,0h-48.8c-2.8,0.1-5.2-2.1-5.3-4.9c-0.1-2.8,2.1-5.2,4.9-5.3
	c0.2,0,0.3,0,0.5,0h48.8C290.4,316.8,292.7,319.1,292.7,321.9C292.7,321.9,292.7,321.9,292.7,321.9z"/>
<linearGradient id="SVGID_23_" gradientUnits="userSpaceOnUse" x1="322.02" y1="105.6201" x2="460.75" y2="107.9501" gradientTransform="matrix(1 0 0 -1 -52.87 427.8)">
	<stop  offset="0" style="stop-color:#010101;stop-opacity:0"/>
	<stop  offset="0.95" style="stop-color:#010101"/>
</linearGradient>
<path class="st28" d="M292.7,321.9c0,2.8-2.3,5.1-5.1,5.1c0,0,0,0,0,0h-2.9c2.8,0.1,5.2-2.1,5.3-4.9c0.1-2.8-2.1-5.2-4.9-5.3
	c-0.2,0-0.3,0-0.5,0h2.9C290.4,316.8,292.7,319.1,292.7,321.9C292.7,321.9,292.7,321.9,292.7,321.9z"/>
<linearGradient id="SVGID_24_" gradientUnits="userSpaceOnUse" x1="139.7813" y1="303.4835" x2="148.7012" y2="303.7235" gradientTransform="matrix(1 0 0 -1 -52.87 427.8)">
	<stop  offset="0" style="stop-color:#010101;stop-opacity:0"/>
	<stop  offset="0.95" style="stop-color:#010101"/>
</linearGradient>
<path class="st29" d="M89,122.9c0.1-0.5,0-1.1-0.3-1.6c-0.5-0.5-1.3-0.5-1.8,0c0,0,0,0,0,0c-0.2,0.2-0.3,0.4-0.4,0.7
	c-0.2,0.7-0.2,1.3-0.2,2c0,0.9,0.2,1.7,0.6,2.4c0.4,0.8,1.2,1.2,2.1,1.2c0.7,0,1.2-0.6,1.2-1.3c0-0.2-0.1-0.4-0.2-0.6
	c-0.2-0.4-0.8-0.5-1-0.9C88.8,124.2,88.8,123.5,89,122.9z"/>
<linearGradient id="SVGID_25_" gradientUnits="userSpaceOnUse" x1="98.7208" y1="239.7168" x2="150.3307" y2="237.3868" gradientTransform="matrix(1 0 0 -1 -52.87 427.8)">
	<stop  offset="0" style="stop-color:#010101;stop-opacity:0"/>
	<stop  offset="0.95" style="stop-color:#010101"/>
</linearGradient>
<path class="st30" d="M52,207.9l2.7-39c0,0-4,1.2-6.2,7.1s-8,24.7-8,24.7L52,207.9z"/>
<linearGradient id="SVGID_26_" gradientUnits="userSpaceOnUse" x1="137.7204" y1="194.3582" x2="271.1804" y2="221.3282" gradientTransform="matrix(1 0 0 -1 -52.87 427.8)">
	<stop  offset="0" style="stop-color:#010101;stop-opacity:0"/>
	<stop  offset="0.95" style="stop-color:#010101"/>
</linearGradient>
<path class="st31" d="M116.4,258.9c-4.8,4.4-10.2,8.6-16.3,10.9l-4.5-42.3c-0.7-6.5-0.6-13.1,0.3-19.7l2.2-16.5l12.3,6.9
	c-2,0,0.2,31.6,1,37C112.6,243.5,118.6,256.8,116.4,258.9z"/>
<linearGradient id="SVGID_27_" gradientUnits="userSpaceOnUse" x1="116.75" y1="79.045" x2="137.59" y2="79.045" gradientTransform="matrix(1 0 0 -1 -52.87 427.8)">
	<stop  offset="0" style="stop-color:#010101;stop-opacity:0"/>
	<stop  offset="0.95" style="stop-color:#010101"/>
</linearGradient>
<path class="st32" d="M84.7,302.1c-4.4,35.6-3.9,64.9-16.1,98.6l0,0l-1.6,2.6l-3.1,0.7c0,0,4.6-34.5,5-40.6s6.7-69.9,6.7-69.9
	L84.7,302.1z"/>
<circle class="st0" cx="224.5" cy="278.2" r="15.2"/>
<linearGradient id="SVGID_28_" gradientUnits="userSpaceOnUse" x1="224.8249" y1="185.22" x2="223.5849" y2="-16.91" gradientTransform="matrix(1 0 0 -1 0 430)">
	<stop  offset="0" style="stop-color:#010101;stop-opacity:0"/>
	<stop  offset="0.95" style="stop-color:#010101"/>
</linearGradient>
<circle class="st33" cx="224.6" cy="278.2" r="15.2"/>
<circle class="st0" cx="298.9" cy="278.2" r="15.2"/>
<linearGradient id="SVGID_29_" gradientUnits="userSpaceOnUse" x1="299.6849" y1="185.22" x2="298.4449" y2="-16.91" gradientTransform="matrix(1 0 0 -1 0 430)">
	<stop  offset="0" style="stop-color:#010101;stop-opacity:0"/>
	<stop  offset="0.95" style="stop-color:#010101"/>
</linearGradient>
<circle class="st34" cx="299.5" cy="278.2" r="15.2"/>
<polygon class="st4" points="248.4,284.6 247.3,283.4 251.6,279.7 247.8,275.7 249.1,274.6 254,279.9 "/>
<polygon class="st4" points="259.2,284.6 258.1,283.4 262.4,279.7 258.7,275.7 259.9,274.6 264.8,279.9 "/>
<polygon class="st4" points="270.1,284.6 269,283.4 273.3,279.7 269.5,275.7 270.8,274.6 275.7,279.9 "/>
<path class="st4" d="M225.2,286.4c-1.1,0-2.2-0.3-3.1-0.8c-2.8-1.6-4-5.4-4.7-8c-0.6-1.9-0.4-3.9,0.6-5.6c0.8-1.2,1.9-2,3.3-2.3
	c0.8-0.2,1.5,0.3,1.7,1.1c0,0,0,0,0,0c0.2,0.8-0.4,1.5-1.1,1.7c0,0,0,0,0,0c-0.6,0.2-1.1,0.5-1.4,1c-0.5,1-0.6,2.2-0.2,3.3
	c0.8,3.4,1.9,5.4,3.3,6.2c1,0.5,2.1,0.6,3.2,0.2c0.8-0.2,1.6,0.2,1.8,1s-0.2,1.6-1,1.8C226.8,286.3,226,286.4,225.2,286.4z"/>
<path class="st4" d="M222.7,275.1h-0.1c-0.8-0.1-1.4-0.8-1.3-1.5l0.4-4.8c0.1-0.8,0.8-1.4,1.5-1.3c0.8,0.1,1.4,0.7,1.3,1.5
	c0,0,0,0,0,0l-0.4,4.8C224.1,274.6,223.4,275.1,222.7,275.1z"/>
<path class="st4" d="M230,286.5c-0.4,0-0.7-0.1-1-0.4l-3.5-3.3c-0.6-0.6-0.6-1.5-0.1-2.1s1.5-0.6,2.1-0.1l0,0l3.5,3.3
	c0.6,0.5,0.6,1.4,0.1,2C230.8,286.3,230.5,286.5,230,286.5z"/>
</svg>
